<svg width="579" height="320" viewBox="0 0 579 320" fill="none" xmlns="http://www.w3.org/2000/svg">
<g clip-path="url(#clip0_304_23)">
<rect width="579" height="320" fill="white"/>
<path d="M91.6 99.4H104.6V212H80.4L24.4 105.2H24V212H11V99.4H33.6L91.2 206.2H91.6V99.4ZM154.011 214C147.344 214 141.944 212.8 137.811 210.4C133.811 208 130.744 204.8 128.611 200.8C126.478 196.667 125.011 192.2 124.211 187.4C123.544 182.467 123.211 177.533 123.211 172.6V130.6H136.011V172.8C136.011 178.133 136.544 183.067 137.611 187.6C138.678 192.133 140.811 195.733 144.011 198.4C147.344 201.067 152.144 202.4 158.411 202.4C164.411 202.4 169.078 201.067 172.411 198.4C175.878 195.6 178.411 192 180.011 187.6C181.611 183.2 182.544 178.6 182.811 173.8V130.6H196.011V212H185.011L182.811 193.8H182.411C181.744 196.067 180.344 198.8 178.211 202C176.078 205.2 173.011 208 169.011 210.4C165.144 212.8 160.144 214 154.011 214ZM212.873 212V130.6H223.873L224.673 150.8H225.073C225.34 149.867 225.94 148.333 226.873 146.2C227.807 143.933 229.273 141.6 231.273 139.2C233.273 136.8 235.873 134.8 239.073 133.2C242.273 131.467 246.34 130.6 251.273 130.6C258.74 130.6 264.207 132.667 267.673 136.8C271.273 140.933 273.673 145.6 274.873 150.8H275.273C275.673 149.867 276.407 148.333 277.473 146.2C278.54 143.933 280.14 141.6 282.273 139.2C284.407 136.8 287.14 134.8 290.473 133.2C293.94 131.467 298.14 130.6 303.073 130.6C308.273 130.6 312.54 131.667 315.873 133.8C319.207 135.8 321.74 138.533 323.473 142C325.34 145.333 326.673 148.867 327.473 152.6C328.273 156.333 328.74 159.933 328.873 163.4C329.007 166.867 329.073 169.667 329.073 171.8V212H317.873V171.8C317.873 169.667 317.74 166.933 317.473 163.6C317.207 160.267 316.54 157 315.473 153.8C314.407 150.467 312.54 147.733 309.873 145.6C307.34 143.333 303.673 142.2 298.873 142.2C293.54 142.2 289.273 143.667 286.073 146.6C282.873 149.533 280.54 153.4 279.073 158.2C277.607 162.867 276.873 167.933 276.873 173.4V212H265.673V171.8C265.673 169.667 265.54 166.933 265.273 163.6C265.007 160.267 264.34 157 263.273 153.8C262.207 150.467 260.34 147.733 257.673 145.6C255.14 143.333 251.473 142.2 246.673 142.2C241.34 142.2 237.073 143.667 233.873 146.6C230.673 149.533 228.34 153.4 226.873 158.2C225.407 162.867 224.673 167.933 224.673 173.4V212H212.873ZM390.105 214C384.771 214 380.238 213.133 376.505 211.4C372.905 209.533 369.905 207.4 367.505 205C365.238 202.6 363.505 200.333 362.305 198.2C361.105 196.067 360.371 194.667 360.105 194H359.705L357.705 212H346.505V99.4H359.705L359.905 151H360.305C360.571 150.333 361.238 148.933 362.305 146.8C363.371 144.667 365.038 142.333 367.305 139.8C369.571 137.267 372.505 135.133 376.105 133.4C379.838 131.533 384.438 130.6 389.905 130.6C397.771 130.6 404.305 132.4 409.505 136C414.838 139.6 418.838 144.6 421.505 151C424.171 157.267 425.505 164.4 425.505 172.4C425.505 180.4 424.171 187.533 421.505 193.8C418.838 200.067 414.838 205 409.505 208.6C404.305 212.2 397.838 214 390.105 214ZM386.905 202.6C393.305 202.6 398.371 201.133 402.105 198.2C405.838 195.267 408.571 191.533 410.305 187C412.038 182.333 412.905 177.467 412.905 172.4C412.905 167.2 411.971 162.333 410.105 157.8C408.238 153.267 405.305 149.6 401.305 146.8C397.305 143.867 392.171 142.4 385.905 142.4C378.038 142.4 371.771 145.133 367.105 150.6C362.438 155.933 360.105 163.2 360.105 172.4C360.105 181.733 362.571 189.133 367.505 194.6C372.571 199.933 379.038 202.6 386.905 202.6ZM442.022 212V130.6H453.622L455.022 152C455.822 148.4 457.422 144.933 459.822 141.6C462.222 138.267 465.489 135.6 469.622 133.6C473.889 131.467 479.155 130.467 485.422 130.6H489.222V144.8H485.222C476.689 144.8 470.222 146.067 465.822 148.6C461.555 151 458.622 154.4 457.022 158.8C455.555 163.2 454.822 168.267 454.822 174V212H442.022ZM528.973 213.8C521.507 213.8 515.373 212 510.573 208.4C505.773 204.667 502.173 199.667 499.773 193.4C497.507 187.133 496.373 180 496.373 172C496.373 159.733 499.04 149.667 504.373 141.8C509.84 133.8 518.04 129.8 528.973 129.8C534.573 129.8 539.24 130.8 542.973 132.8C546.84 134.667 549.907 137 552.173 139.8C554.573 142.6 556.307 145.267 557.373 147.8H557.573V130.6H570.773V212H559.773L557.773 196.2H557.373C556.173 198.867 554.44 201.6 552.173 204.4C549.907 207.067 546.84 209.333 542.973 211.2C539.24 212.933 534.573 213.8 528.973 213.8ZM533.973 202.4C542.24 202.4 548.173 199.667 551.773 194.2C555.507 188.733 557.373 181.4 557.373 172.2C557.373 162.333 555.44 154.8 551.573 149.6C547.84 144.4 541.973 141.8 533.973 141.8C525.173 141.8 518.84 144.733 514.973 150.6C511.24 156.333 509.373 163.467 509.373 172C509.373 180.933 511.307 188.267 515.173 194C519.04 199.6 525.307 202.4 533.973 202.4Z" fill="black"/>
</g>
<defs>
<clipPath id="clip0_304_23">
<rect width="579" height="320" fill="white"/>
</clipPath>
</defs>
</svg>
